<svg width="252" height="252" viewBox="0 0 252 252" fill="none" xmlns="http://www.w3.org/2000/svg">
<path d="M163.228 104.217C167.154 97.2408 170.428 90.9459 172.447 86.1547C182.252 62.8894 172.557 36.1281 148.858 25.2118C125.159 14.2955 101.361 25.6147 90.9165 47.4697C70.944 33.7649 44.3014 35.7776 29.6088 57.1645C14.9162 78.5514 19.5274 106.491 39.651 121.737C48.7841 128.657 66.8468 138.854 83.8525 147.929M171.12 123.374C166.689 99.5609 146.426 82.145 120.914 86.8786C95.4022 91.6122 78.9062 114.629 82.3551 139.64C85.1261 159.733 100.421 206.879 106.327 224.637C107.133 227.06 107.536 228.272 108.334 229.117C109.029 229.853 109.953 230.386 110.938 230.62C112.069 230.889 113.32 230.632 115.821 230.118C134.153 226.354 182.63 216.027 201.417 208.38C224.801 198.862 236.869 173.083 227.83 148.606C218.791 124.13 193.96 115.306 171.12 123.374Z" stroke="#FEAAE9" stroke-width="16.2581" stroke-linecap="round" stroke-linejoin="round"/>
<g clip-path="url(#clip0_55_970)">
<path fill-rule="evenodd" clip-rule="evenodd" d="M166.221 134.69C163.271 118.837 149.782 107.243 132.798 110.394C115.814 113.545 104.833 128.868 107.129 145.518C109.038 159.361 119.875 192.49 123.475 203.265C123.878 204.471 124.079 205.073 124.477 205.494C124.824 205.862 125.283 206.127 125.775 206.244C126.338 206.378 126.961 206.251 128.206 205.997C139.338 203.726 173.447 196.548 186.39 191.279C201.957 184.943 209.991 167.782 203.973 151.487C197.956 135.193 181.425 129.319 166.221 134.69Z" fill="#FFA7E9" stroke="white" stroke-width="14.4285" stroke-linecap="round" stroke-linejoin="round"/>
</g>
<defs>
<clipPath id="clip0_55_970">
<rect width="125.82" height="125.82" fill="white" transform="translate(125.232 79.9355) rotate(30)"/>
</clipPath>
</defs>
</svg>
